<svg width="26" height="26" viewBox="0 0 26 26" fill="none" xmlns="http://www.w3.org/2000/svg">
<path d="M22.1 2.6H19.5V1.3C19.5 0.955218 19.363 0.624558 19.1192 0.380761C18.8754 0.136964 18.5448 0 18.2 0C17.8552 0 17.5246 0.136964 17.2808 0.380761C17.037 0.624558 16.9 0.955218 16.9 1.3V2.6H9.1V1.3C9.1 0.955218 8.96304 0.624558 8.71924 0.380761C8.47544 0.136964 8.14478 0 7.8 0C7.45522 0 7.12456 0.136964 6.88076 0.380761C6.63696 0.624558 6.5 0.955218 6.5 1.3V2.6H3.9C2.86566 2.6 1.87368 3.01089 1.14228 3.74228C0.410892 4.47368 0 5.46566 0 6.5V22.1C0 23.1343 0.410892 24.1263 1.14228 24.8577C1.87368 25.5891 2.86566 26 3.9 26H22.1C23.1343 26 24.1263 25.5891 24.8577 24.8577C25.5891 24.1263 26 23.1343 26 22.1V6.5C26 5.46566 25.5891 4.47368 24.8577 3.74228C24.1263 3.01089 23.1343 2.6 22.1 2.6ZM23.4 22.1C23.4 22.4448 23.263 22.7754 23.0192 23.0192C22.7754 23.263 22.4448 23.4 22.1 23.4H3.9C3.55522 23.4 3.22456 23.263 2.98076 23.0192C2.73696 22.7754 2.6 22.4448 2.6 22.1V13H23.4V22.1ZM23.4 10.4H2.6V6.5C2.6 6.15522 2.73696 5.82456 2.98076 5.58076C3.22456 5.33696 3.55522 5.2 3.9 5.2H6.5V6.5C6.5 6.84478 6.63696 7.17544 6.88076 7.41924C7.12456 7.66304 7.45522 7.8 7.8 7.8C8.14478 7.8 8.47544 7.66304 8.71924 7.41924C8.96304 7.17544 9.1 6.84478 9.1 6.5V5.2H16.9V6.5C16.9 6.84478 17.037 7.17544 17.2808 7.41924C17.5246 7.66304 17.8552 7.8 18.2 7.8C18.5448 7.8 18.8754 7.66304 19.1192 7.41924C19.363 7.17544 19.5 6.84478 19.5 6.5V5.2H22.1C22.4448 5.2 22.7754 5.33696 23.0192 5.58076C23.263 5.82456 23.4 6.15522 23.4 6.5V10.4Z" fill="#636363"/>
</svg>
