<svg width="29" height="25" viewBox="0 0 29 25" fill="none" xmlns="http://www.w3.org/2000/svg">
<path d="M13.7151 8.78336V5.21599C13.7151 4.09784 13.2685 3.02549 12.4737 2.23483C11.6788 1.44418 10.6008 1 9.47671 1C8.35263 1 7.27458 1.44418 6.47974 2.23483C5.68489 3.02549 5.23835 4.09784 5.23835 5.21599V8.78336M10.7808 8.78336H8.1726C5.11316 8.78336 3.58474 8.78336 2.53102 9.58764C2.25965 9.79475 2.01676 10.0364 1.80855 10.3063C1 11.3545 1 12.8748 1 15.9181C1 18.9614 1 20.4818 1.80855 21.5299C2.01676 21.7999 2.25965 22.0415 2.53102 22.2486C3.58474 23.0529 5.11316 23.0529 8.1726 23.0529H10.7808C13.8403 23.0529 15.3687 23.0529 16.4224 22.2486C16.6938 22.0415 16.9367 21.7999 17.1449 21.5299C17.9534 20.4818 17.9534 18.9614 17.9534 15.9181C17.9534 12.8748 17.9534 11.3545 17.1449 10.3063C16.9367 10.0364 16.6938 9.79475 16.4224 9.58764C15.3687 8.78336 13.8403 8.78336 10.7808 8.78336Z" stroke="black" stroke-width="2" stroke-linecap="round" stroke-linejoin="round"/>
<path d="M21.8665 8.78346C21.8665 9.04149 21.9696 9.28896 22.153 9.47142C22.3364 9.65387 22.5852 9.75638 22.8446 9.75638C23.104 9.75638 23.3528 9.65387 23.5362 9.47142C23.7196 9.28896 23.8227 9.04149 23.8227 8.78346H21.8665ZM20.5637 7.81054C20.4353 7.81037 20.308 7.83536 20.1893 7.8841C20.0706 7.93284 19.9627 8.00436 19.8717 8.09458C19.7808 8.18481 19.7086 8.29196 19.6593 8.40994C19.61 8.52791 19.5845 8.65439 19.5843 8.78216C19.5841 8.90993 19.6093 9.03648 19.6583 9.15458C19.7073 9.27269 19.7792 9.38004 19.8699 9.4705C19.9606 9.56096 20.0683 9.63277 20.1869 9.68182C20.3055 9.73087 20.4327 9.75621 20.5611 9.75638L20.5637 7.81054ZM20.5611 22.08C20.3017 22.0804 20.0531 22.1832 19.8699 22.3659C19.6867 22.5486 19.584 22.7962 19.5843 23.0543C19.5847 23.3123 19.688 23.5596 19.8717 23.7418C20.0554 23.924 20.3043 24.0262 20.5637 24.0259L20.5611 22.08ZM16.1975 0.610928C16.0837 0.670041 15.9826 0.750888 15.9001 0.848854C15.8176 0.94682 15.7554 1.05999 15.7169 1.18189C15.6784 1.30379 15.6644 1.43205 15.6757 1.55933C15.687 1.68662 15.7234 1.81044 15.7828 1.92372C15.8423 2.03701 15.9235 2.13754 16.022 2.21958C16.1205 2.30162 16.2343 2.36356 16.3568 2.40187C16.4794 2.44018 16.6083 2.4541 16.7363 2.44283C16.8642 2.43157 16.9887 2.39535 17.1026 2.33624L16.1975 0.610928ZM26.1049 15.9182C26.1049 17.4619 26.1036 18.5386 26.0097 19.3636C25.9184 20.1679 25.7501 20.6116 25.4985 20.9385L27.0503 22.1228C27.6072 21.4016 27.8432 20.5597 27.9541 19.5803C28.0623 18.6229 28.061 17.4165 28.061 15.9182H26.1049ZM25.4985 20.9385C25.3419 21.1402 25.16 21.3211 24.9572 21.4768L26.1479 23.0205C26.4887 22.7602 26.7895 22.461 27.0503 22.1228L25.4985 20.9385ZM28.061 15.9182C28.061 14.4199 28.0623 13.2135 27.9541 12.2548C27.8432 11.2767 27.6072 10.4348 27.0503 9.71357L25.4985 10.8979C25.7501 11.2248 25.9184 11.6685 26.0097 12.4728C26.1036 13.2978 26.1049 14.3745 26.1049 15.9182H28.061ZM24.9572 10.3596C25.1616 10.5161 25.342 10.6956 25.4985 10.8979L27.0503 9.71357C26.7887 9.37456 26.4878 9.07533 26.1479 8.81589L24.9572 10.3596ZM23.8227 8.78346V5.21608H21.8665V8.78346H23.8227ZM23.8227 5.21608C23.8227 3.8399 23.2731 2.52008 22.2948 1.54697C21.3165 0.573863 19.9897 0.027176 18.6062 0.027176V1.97302C19.4709 1.97302 20.3002 2.3147 20.9116 2.92289C21.523 3.53108 21.8665 4.35597 21.8665 5.21608H23.8227ZM20.5611 9.75638C21.8887 9.75897 22.825 9.77454 23.5462 9.87313C24.2478 9.96653 24.6521 10.1274 24.9572 10.3596L26.1479 8.81589C25.4763 8.30348 24.7003 8.0635 23.8083 7.94415C22.9359 7.8274 21.8652 7.81313 20.5637 7.81054L20.5611 9.75638ZM20.5637 24.0259C21.8665 24.0233 22.9372 24.0103 23.8083 23.8923C24.7016 23.7729 25.4763 23.5329 26.1479 23.0205L24.9572 21.4768C24.6521 21.709 24.2478 21.8699 23.5462 21.9646C22.825 22.0619 21.8887 22.0774 20.5598 22.08L20.5637 24.0259ZM17.1026 2.33624C17.5512 2.10274 18.0624 1.97302 18.6062 1.97302V0.027176C17.739 0.027176 16.92 0.237327 16.1975 0.610928L17.1026 2.33624Z" fill="black"/>
<path d="M6.2168 15.9182C6.2168 15.9182 7.52091 16.5668 8.17296 18.5126C8.17296 18.5126 10.1291 14.621 12.7373 13.3237" stroke="black" stroke-width="2" stroke-linecap="round" stroke-linejoin="round"/>
</svg>
