<svg width="25" height="26" viewBox="0 0 25 26" fill="none" xmlns="http://www.w3.org/2000/svg">
<path d="M20.8579 6.35571C22.0624 8.35487 22.5771 10.6942 22.3228 13.0143V14.346C22.3213 15.7482 22.6887 17.126 23.3882 18.3412M6.3418 11.6826C6.3418 10.2698 6.90303 8.9149 7.90204 7.91592C8.90105 6.91694 10.256 6.35571 11.6688 6.35571C13.0816 6.35571 14.4366 6.91694 15.4356 7.91592C16.4346 8.9149 16.9958 10.2698 16.9958 11.6826V13.0143C16.9958 15.8958 17.9304 18.6995 19.6593 21.0046" stroke="black" stroke-width="2" stroke-linecap="round" stroke-linejoin="round"/>
<path d="M11.6702 11.6828V14.3462C11.6659 18.1542 12.8278 21.8721 14.9996 25M6.34318 17.0097C6.66907 19.7928 7.4804 22.4971 8.74034 25M2.21475 22.3366C1.31615 19.314 0.911414 16.1661 1.01617 13.0145V11.6828C1.01107 9.81022 1.49963 7.96937 2.43263 6.34575C3.36563 4.72212 4.71011 3.37309 6.33059 2.43459C7.95107 1.49609 9.79029 1.00127 11.6629 1C13.5356 0.998732 15.3755 1.49105 16.9972 2.42736" stroke="black" stroke-width="2" stroke-linecap="round" stroke-linejoin="round"/>
</svg>
