<svg width="26" height="22" viewBox="0 0 26 22" fill="none" xmlns="http://www.w3.org/2000/svg">
<path d="M0.949219 5.74995H24.9492M0.949219 3.34995C0.949219 2.71343 1.20208 2.10298 1.65216 1.65289C2.10225 1.20281 2.7127 0.949951 3.34922 0.949951H22.5492C23.1857 0.949951 23.7962 1.20281 24.2463 1.65289C24.6964 2.10298 24.9492 2.71343 24.9492 3.34995V17.75C24.9492 18.3865 24.6964 18.9969 24.2463 19.447C23.7962 19.8971 23.1857 20.15 22.5492 20.15H3.34922C2.7127 20.15 2.10225 19.8971 1.65216 19.447C1.20208 18.9969 0.949219 18.3865 0.949219 17.75V3.34995Z" stroke="black" stroke-width="1.9" stroke-linecap="round" stroke-linejoin="round"/>
<path d="M0.949219 10.55H9.34922C9.34922 11.75 10.0692 14.15 12.9492 14.15C15.8292 14.15 16.5492 11.75 16.5492 10.55H24.9492" stroke="black" stroke-width="1.9" stroke-linecap="round" stroke-linejoin="round"/>
</svg>
