<svg width="20" height="20" viewBox="0 0 20 20" fill="none" xmlns="http://www.w3.org/2000/svg">
<path d="M8.33333 10H11.6667" stroke="#364153" stroke-width="1.66667" stroke-linecap="round" stroke-linejoin="round"/>
<path d="M8.33333 6.66669H11.6667" stroke="#364153" stroke-width="1.66667" stroke-linecap="round" stroke-linejoin="round"/>
<path d="M11.6667 17.5V15C11.6667 14.558 11.4911 14.134 11.1785 13.8215C10.8659 13.5089 10.442 13.3333 10 13.3333C9.55797 13.3333 9.13405 13.5089 8.82149 13.8215C8.50893 14.134 8.33333 14.558 8.33333 15V17.5" stroke="#364153" stroke-width="1.66667" stroke-linecap="round" stroke-linejoin="round"/>
<path d="M5 8.33331H3.33333C2.89131 8.33331 2.46738 8.50891 2.15482 8.82147C1.84226 9.13403 1.66667 9.55795 1.66667 9.99998V15.8333C1.66667 16.2753 1.84226 16.6993 2.15482 17.0118C2.46738 17.3244 2.89131 17.5 3.33333 17.5H16.6667C17.1087 17.5 17.5326 17.3244 17.8452 17.0118C18.1577 16.6993 18.3333 16.2753 18.3333 15.8333V7.49998C18.3333 7.05795 18.1577 6.63403 17.8452 6.32147C17.5326 6.00891 17.1087 5.83331 16.6667 5.83331H15" stroke="#364153" stroke-width="1.66667" stroke-linecap="round" stroke-linejoin="round"/>
<path d="M5 17.5V4.16667C5 3.72464 5.17559 3.30072 5.48816 2.98816C5.80072 2.67559 6.22464 2.5 6.66667 2.5H13.3333C13.7754 2.5 14.1993 2.67559 14.5118 2.98816C14.8244 3.30072 15 3.72464 15 4.16667V17.5" stroke="#364153" stroke-width="1.66667" stroke-linecap="round" stroke-linejoin="round"/>
</svg>
