<svg width="48" height="48" viewBox="0 0 48 48" fill="none" xmlns="http://www.w3.org/2000/svg">
<circle cx="23.9332" cy="23.9331" r="18" transform="rotate(-154.918 23.9332 23.9331)" fill="#EFFCFF"/>
<path d="M7.63051 16.3028C5.97937 19.8305 5.51707 23.7986 6.31302 27.6114C7.10896 31.4242 9.12019 34.876 12.0448 37.4485C14.9694 40.0211 18.6495 41.5755 22.5327 41.8786C26.4159 42.1816 30.2926 41.2169 33.5809 39.1293C36.8692 37.0416 39.3916 33.9436 40.7694 30.3005C42.1472 26.6573 42.3061 22.6655 41.2222 18.9243C40.1384 15.1832 37.8703 11.8945 34.7583 9.55205C31.6464 7.2096 27.8586 5.93976 23.9636 5.93317L23.9332 23.9331L7.63051 16.3028Z" fill="#EEA1F0"/>
<circle cx="23.6055" cy="23.8662" r="14" fill="white"/>
<path d="M16.0015 27.9982C13.8415 27.9982 12.9895 27.1942 12.9895 25.9822C12.9895 25.1062 13.5295 24.4942 14.9095 24.2902V24.1582C13.8655 23.9302 13.3015 23.4262 13.3015 22.4662C13.3135 21.2662 14.1175 20.5342 16.0015 20.5342C17.9095 20.5342 18.7015 21.2662 18.7015 22.4662C18.7015 23.4262 18.1255 23.9302 17.1055 24.1582V24.2902C18.4855 24.4942 19.0135 25.1062 19.0135 25.9822C19.0135 27.1942 18.1735 27.9982 16.0015 27.9982ZM16.0015 24.7222C14.6815 24.7222 14.3335 25.2262 14.3335 25.8262C14.3335 26.4982 14.8615 26.9062 16.0015 26.9062C17.1415 26.9062 17.6695 26.4982 17.6695 25.8262C17.6695 25.2262 17.3455 24.7222 16.0015 24.7222ZM16.0015 21.6382C14.9935 21.6382 14.5975 22.0342 14.5855 22.7182C14.5855 23.4862 15.1495 23.8102 16.0015 23.8102C16.8655 23.8102 17.4175 23.4862 17.4175 22.7182C17.4175 22.0342 17.0095 21.6382 16.0015 21.6382ZM22.7983 27.9982C20.6383 27.9982 19.7863 27.1942 19.7863 25.9822C19.7863 25.1062 20.3263 24.4942 21.7063 24.2902V24.1582C20.6623 23.9302 20.0983 23.4262 20.0983 22.4662C20.1103 21.2662 20.9143 20.5342 22.7983 20.5342C24.7063 20.5342 25.4983 21.2662 25.4983 22.4662C25.4983 23.4262 24.9223 23.9302 23.9023 24.1582V24.2902C25.2823 24.4942 25.8103 25.1062 25.8103 25.9822C25.8103 27.1942 24.9703 27.9982 22.7983 27.9982ZM22.7983 24.7222C21.4783 24.7222 21.1303 25.2262 21.1303 25.8262C21.1303 26.4982 21.6583 26.9062 22.7983 26.9062C23.9383 26.9062 24.4663 26.4982 24.4663 25.8262C24.4663 25.2262 24.1423 24.7222 22.7983 24.7222ZM22.7983 21.6382C21.7903 21.6382 21.3943 22.0342 21.3823 22.7182C21.3823 23.4862 21.9463 23.8102 22.7983 23.8102C23.6623 23.8102 24.2143 23.4862 24.2143 22.7182C24.2143 22.0342 23.8063 21.6382 22.7983 21.6382ZM32.8592 27.9862C31.6472 27.9862 30.8552 27.1942 30.8552 25.8982C30.8552 24.6382 31.6472 23.8582 32.8592 23.8582C34.0952 23.8582 34.8632 24.6382 34.8632 25.8982C34.8632 27.1942 34.0952 27.9862 32.8592 27.9862ZM28.5632 24.6742C27.3272 24.6742 26.5592 23.8822 26.5592 22.5862C26.5592 21.3022 27.3272 20.5342 28.5632 20.5342C29.7752 20.5342 30.5672 21.3022 30.5672 22.5862C30.5672 23.8822 29.7752 24.6742 28.5632 24.6742ZM28.5512 23.7982C29.1872 23.7982 29.5472 23.3542 29.5472 22.5862C29.5472 21.8302 29.1752 21.4222 28.5632 21.4222C27.9392 21.4222 27.5792 21.8302 27.5792 22.5862C27.5792 23.3542 27.9272 23.7982 28.5512 23.7982ZM32.8592 27.1102C33.4832 27.1102 33.8432 26.6662 33.8432 25.8982C33.8432 25.1422 33.4832 24.7342 32.8592 24.7342C32.2472 24.7342 31.8752 25.1422 31.8752 25.8982C31.8752 26.6662 32.2232 27.1102 32.8592 27.1102ZM30.9392 23.6782L32.7992 20.6662H34.5872V20.7382L31.2032 23.8822L30.9392 23.6782ZM30.5192 24.8542L28.6712 27.8662H26.8832V27.7942L30.2672 24.6502L30.5192 24.8542Z" fill="black"/>
</svg>
