<svg width="26" height="24" viewBox="0 0 26 24" fill="none" xmlns="http://www.w3.org/2000/svg">
<path d="M7 0C9.57625 0 11.785 2.27 13 5.73125C14.215 2.27 16.4237 0 19 0C22.925 0 26 5.27125 26 12C26 18.7288 22.925 24 19 24C16.4237 24 14.215 21.73 13 18.2687C11.785 21.73 9.57625 24 7 24C3.075 24 0 18.7288 0 12C0 5.27125 3.075 0 7 0ZM15.635 19.2987C16.5712 21.015 17.7975 22 19 22C20.2025 22 21.4288 21.015 22.365 19.2987C22.9703 18.1509 23.4016 16.9196 23.645 15.645C23.0358 15.9204 22.3672 16.0386 21.7005 15.989C21.0338 15.9393 20.3902 15.7233 19.8284 15.3608C19.2667 14.9982 18.8048 14.5007 18.485 13.9136C18.1652 13.3265 17.9976 12.6686 17.9976 12C17.9976 11.3314 18.1652 10.6735 18.485 10.0864C18.8048 9.49934 19.2667 9.00177 19.8284 8.63922C20.3902 8.27667 21.0338 8.0607 21.7005 8.01105C22.3672 7.96139 23.0358 8.07965 23.645 8.355C23.4016 7.08041 22.9703 5.84905 22.365 4.70125C21.4288 2.985 20.2025 2 19 2C17.7975 2 16.5712 2.985 15.635 4.70125C14.5813 6.63375 14 9.22625 14 12C14 14.7738 14.5813 17.3662 15.635 19.2987ZM24 12C24 11.6044 23.8827 11.2178 23.6629 10.8889C23.4432 10.56 23.1308 10.3036 22.7654 10.1522C22.3999 10.0009 21.9978 9.96126 21.6098 10.0384C21.2219 10.1156 20.8655 10.3061 20.5858 10.5858C20.3061 10.8655 20.1156 11.2219 20.0384 11.6098C19.9613 11.9978 20.0009 12.3999 20.1522 12.7654C20.3036 13.1308 20.56 13.4432 20.8889 13.6629C21.2178 13.8827 21.6044 14 22 14C22.5304 14 23.0391 13.7893 23.4142 13.4142C23.7893 13.0391 24 12.5304 24 12ZM3.635 19.2987C4.57125 21.015 5.7975 22 7 22C8.2025 22 9.42875 21.015 10.365 19.2987C10.9703 18.1509 11.4016 16.9196 11.645 15.645C11.0358 15.9204 10.3672 16.0386 9.70053 15.989C9.03381 15.9393 8.39017 15.7233 7.82845 15.3608C7.26672 14.9982 6.80483 14.5007 6.485 13.9136C6.16516 13.3265 5.99759 12.6686 5.99759 12C5.99759 11.3314 6.16516 10.6735 6.485 10.0864C6.80483 9.49934 7.26672 9.00177 7.82845 8.63922C8.39017 8.27667 9.03381 8.0607 9.70053 8.01105C10.3672 7.96139 11.0358 8.07965 11.645 8.355C11.4016 7.08041 10.9703 5.84905 10.365 4.70125C9.42875 2.985 8.2025 2 7 2C5.7975 2 4.57125 2.985 3.635 4.70125C2.58125 6.63375 2 9.22625 2 12C2 14.7738 2.58125 17.3662 3.635 19.2987ZM12 12C12 11.6044 11.8827 11.2178 11.6629 10.8889C11.4432 10.56 11.1308 10.3036 10.7654 10.1522C10.3999 10.0009 9.99778 9.96126 9.60982 10.0384C9.22186 10.1156 8.86549 10.3061 8.58579 10.5858C8.30608 10.8655 8.1156 11.2219 8.03843 11.6098C7.96126 11.9978 8.00087 12.3999 8.15224 12.7654C8.30362 13.1308 8.55996 13.4432 8.88886 13.6629C9.21776 13.8827 9.60444 14 10 14C10.5304 14 11.0391 13.7893 11.4142 13.4142C11.7893 13.0391 12 12.5304 12 12Z" fill="#EEA1F0"/>
</svg>
