<svg width="22" height="24" viewBox="0 0 22 24" fill="none" xmlns="http://www.w3.org/2000/svg">
<path d="M10.9756 24C9.1243 24 7.36348 23.644 5.69311 22.932C4.02274 22.22 2.48559 21.2816 1.08167 20.1168V22.8H0V17.976H4.91333V19.0392H1.46056C2.805 20.1992 4.279 21.1392 5.88256 21.8592C7.48611 22.5792 9.18378 22.9392 10.9756 22.9392C12.7673 22.9392 14.4691 22.5792 16.0808 21.8592C17.6909 21.1392 19.1681 20.1992 20.5126 19.0392H17.0867V17.9772H22V22.8H20.8951V20.1168C19.4757 21.2808 17.9308 22.2192 16.2604 22.932C14.5901 23.644 12.8289 24 10.9768 24M11.0037 16.8C8.61626 16.8 6.59307 15.9868 4.93411 14.3604C3.27515 12.734 2.44526 10.7484 2.44444 8.4036C2.44363 6.0588 3.2723 4.0724 4.93044 2.4444C6.58859 0.816402 8.61055 0.00160236 10.9963 2.35525e-06C13.3821 -0.00159764 15.4057 0.812002 17.0671 2.4408C18.7285 4.0696 19.558 6.0548 19.5556 8.3964C19.5531 10.738 18.7248 12.7248 17.0708 14.3568C15.4167 15.9888 13.3943 16.8032 11.0037 16.8ZM11 15.6C13.037 15.6 14.7685 14.9 16.1944 13.5C17.6204 12.1 18.3333 10.4 18.3333 8.4C18.3333 8.0872 18.3113 7.7888 18.2673 7.5048C18.2233 7.22 18.1573 6.9292 18.0693 6.6324C17.8501 6.6788 17.6269 6.7136 17.3996 6.7368C17.173 6.7592 16.9498 6.7704 16.7298 6.7704C15.3006 6.8384 13.9423 6.5928 12.6549 6.0336C11.3667 5.4736 10.2557 4.664 9.32189 3.6048C8.75152 4.7368 7.97541 5.7084 6.99356 6.5196C6.0117 7.3308 4.90274 7.9152 3.66667 8.2728V8.3424C3.64222 10.3472 4.34663 12.058 5.77989 13.4748C7.21315 14.8916 8.95319 15.6 11 15.6ZM8.14489 10.362C7.86867 10.362 7.63319 10.2684 7.43845 10.0812C7.24289 9.8948 7.14511 9.6636 7.14511 9.3876C7.14511 9.1116 7.24207 8.882 7.436 8.6988C7.62993 8.5156 7.86989 8.4236 8.15589 8.4228C8.42885 8.4228 8.65781 8.516 8.84278 8.7024C9.02774 8.8888 9.12022 9.12 9.12022 9.396C9.12022 9.672 9.02652 9.902 8.83911 10.086C8.6517 10.27 8.4203 10.362 8.14489 10.362ZM13.8404 10.362C13.5593 10.362 13.3251 10.2684 13.1377 10.0812C12.9503 9.8948 12.8566 9.6636 12.8566 9.3876C12.8566 9.1116 12.9515 8.882 13.1413 8.6988C13.3312 8.5156 13.5667 8.4236 13.8478 8.4228C14.1289 8.422 14.3631 8.5152 14.5506 8.7024C14.738 8.8896 14.8317 9.1208 14.8317 9.396C14.8317 9.6712 14.7363 9.9012 14.5457 10.086C14.355 10.2708 14.1195 10.3628 13.8392 10.362M8.76333 1.5156C7.49141 1.9228 6.42604 2.6108 5.56722 3.5796C4.70841 4.5484 4.14007 5.6736 3.86222 6.9552C5.09911 6.4816 6.16652 5.772 7.06444 4.8264C7.96237 3.8808 8.52785 2.7776 8.76089 1.5168M10.9267 1.2C10.661 1.2 10.395 1.2192 10.1286 1.2576C9.8613 1.296 9.59485 1.3536 9.32922 1.4304C10.0014 2.74 10.9821 3.766 12.2711 4.5084C13.5593 5.2508 14.9543 5.6096 16.456 5.5848C16.6752 5.5848 16.8826 5.5768 17.0781 5.5608C17.2737 5.5456 17.4733 5.5072 17.677 5.4456C17.083 4.1368 16.1733 3.0996 14.9478 2.334C13.7223 1.5684 12.3819 1.1904 10.9267 1.2Z" fill="#EEA1F0"/>
</svg>
