<svg width="28" height="28" viewBox="0 0 28 28" fill="none" xmlns="http://www.w3.org/2000/svg">
<path d="M27 21V25C27 25.5304 26.7893 26.0391 26.4142 26.4142C26.0391 26.7893 25.5304 27 25 27H21M21 1H25C25.5304 1 26.0391 1.21071 26.4142 1.58579C26.7893 1.96086 27 2.46957 27 3V7M1 7V3C1 2.46957 1.21071 1.96086 1.58579 1.58579C1.96086 1.21071 2.46957 1 3 1H7M7 27H3C2.46957 27 1.96086 26.7893 1.58579 26.4142C1.21071 26.0391 1 25.5304 1 25V21M14 9V16H11M9 20C10.3492 21.2816 12.1391 21.9962 14 21.9962C15.8609 21.9962 17.6508 21.2816 19 20M8 9.5C7.86739 9.5 7.74021 9.44732 7.64645 9.35355C7.55268 9.25979 7.5 9.13261 7.5 9C7.5 8.86739 7.55268 8.74021 7.64645 8.64645C7.74021 8.55268 7.86739 8.5 8 8.5C8.13261 8.5 8.25979 8.55268 8.35355 8.64645C8.44732 8.74021 8.5 8.86739 8.5 9C8.5 9.13261 8.44732 9.25979 8.35355 9.35355C8.25979 9.44732 8.13261 9.5 8 9.5ZM20 9.5C19.8674 9.5 19.7402 9.44732 19.6464 9.35355C19.5527 9.25979 19.5 9.13261 19.5 9C19.5 8.86739 19.5527 8.74021 19.6464 8.64645C19.7402 8.55268 19.8674 8.5 20 8.5C20.1326 8.5 20.2598 8.55268 20.3536 8.64645C20.4473 8.74021 20.5 8.86739 20.5 9C20.5 9.13261 20.4473 9.25979 20.3536 9.35355C20.2598 9.44732 20.1326 9.5 20 9.5Z" stroke="white" stroke-width="2" stroke-linecap="round" stroke-linejoin="round"/>
</svg>
