<svg width="12" height="15" viewBox="0 0 12 15" fill="none" xmlns="http://www.w3.org/2000/svg">
<path d="M2.32761 4.59148C2.25636 5.35148 2.20636 6.69648 2.65511 7.26898C2.65511 7.26898 2.44386 5.79148 4.33761 3.93773C5.10011 3.19148 5.27636 2.17648 5.01011 1.41523C4.85886 0.983982 4.58261 0.627732 4.34261 0.378982C4.20261 0.232732 4.31011 -0.00851843 4.51386 0.000231571C5.74636 0.0552316 7.74386 0.397731 8.59261 2.52773C8.96511 3.46273 8.99261 4.42898 8.81511 5.41148C8.70261 6.03898 8.30261 7.43398 9.21511 7.60523C9.86636 7.72773 10.1814 7.21023 10.3226 6.83773C10.3814 6.68273 10.5851 6.64398 10.6951 6.76773C11.7951 8.01898 11.8889 9.49273 11.6614 10.7615C11.2214 13.214 8.73761 14.999 6.27011 14.999C3.18761 14.999 0.733864 13.2352 0.0976145 10.0427C-0.158636 8.75398 -0.0286353 6.20398 1.95886 4.40398C2.10636 4.26898 2.34761 4.38898 2.32761 4.59148Z" fill="url(#paint0_radial_40000344_3274)"/>
<path d="M7.39665 9.17764C6.2604 7.71514 6.76915 6.04639 7.0479 5.38139C7.0854 5.29389 6.9854 5.21139 6.90665 5.26514C6.4179 5.59764 5.41665 6.38014 4.9504 7.48139C4.31915 8.97014 4.36415 9.69889 4.7379 10.5889C4.9629 11.1251 4.70165 11.2389 4.5704 11.2589C4.4429 11.2789 4.3254 11.1939 4.23165 11.1051C3.962 10.8462 3.76982 10.5172 3.67665 10.1551C3.65665 10.0776 3.5554 10.0564 3.50915 10.1201C3.15915 10.6039 2.9779 11.3801 2.96915 11.9289C2.94165 13.6251 4.3429 15.0001 6.0379 15.0001C8.17415 15.0001 9.7304 12.6376 8.5029 10.6626C8.14665 10.0876 7.81165 9.71139 7.39665 9.17764Z" fill="url(#paint1_radial_40000344_3274)"/>
<defs>
<radialGradient id="paint0_radial_40000344_3274" cx="0" cy="0" r="1" gradientTransform="matrix(-8.82338 -0.0382934 -0.0629107 14.4774 5.65959 15.0378)" gradientUnits="userSpaceOnUse">
<stop offset="0.314" stop-color="#FF9800"/>
<stop offset="0.662" stop-color="#FF6D00"/>
<stop offset="0.972" stop-color="#F44336"/>
</radialGradient>
<radialGradient id="paint1_radial_40000344_3274" cx="0" cy="0" r="1" gradientTransform="matrix(-0.0932482 9.23158 6.94746 0.070167 6.15539 6.25743)" gradientUnits="userSpaceOnUse">
<stop offset="0.214" stop-color="#FFF176"/>
<stop offset="0.328" stop-color="#FFF27D"/>
<stop offset="0.487" stop-color="#FFF48F"/>
<stop offset="0.672" stop-color="#FFF7AD"/>
<stop offset="0.793" stop-color="#FFF9C4"/>
<stop offset="0.822" stop-color="#FFF8BD" stop-opacity="0.804"/>
<stop offset="0.863" stop-color="#FFF6AB" stop-opacity="0.529"/>
<stop offset="0.91" stop-color="#FFF38D" stop-opacity="0.209"/>
<stop offset="0.941" stop-color="#FFF176" stop-opacity="0"/>
</radialGradient>
</defs>
</svg>
