<svg width="24" height="10" viewBox="0 0 24 10" fill="none" xmlns="http://www.w3.org/2000/svg">
<path d="M10.0577 3.41667C10.0577 2.94517 10.236 2.49299 10.5534 2.15959C10.8707 1.82619 11.3012 1.63889 11.75 1.63889C12.1988 1.63889 12.6293 1.82619 12.9466 2.15959C13.264 2.49299 13.4423 2.94517 13.4423 3.41667M21.9038 1.63889H22.75M21.9038 1.63889C21.9038 6.97222 21.0577 8.75 17.6731 8.75C14.2885 8.75 13.4423 6.97222 13.4423 1.63889C13.4423 1.63889 14.2885 0.75 17.6731 0.75C21.0577 0.75 21.9038 1.63889 21.9038 1.63889ZM1.59615 1.63889H0.75M1.59615 1.63889C1.59615 6.97222 2.44231 8.75 5.82692 8.75C9.21154 8.75 10.0577 6.97222 10.0577 1.63889C10.0577 1.63889 9.21154 0.75 5.82692 0.75C2.44231 0.75 1.59615 1.63889 1.59615 1.63889Z" stroke="#EEA1F0" stroke-width="1.5" stroke-linecap="round" stroke-linejoin="round"/>
</svg>
