<svg width="25" height="28" viewBox="0 0 25 28" fill="none" xmlns="http://www.w3.org/2000/svg">
<path d="M1 13.6517C1 11.4518 1 10.3519 1.44386 9.38477C1.88934 8.41767 2.72361 7.70328 4.39376 6.27126L6.01369 4.88298C9.03487 2.29595 10.5414 1 12.3395 1C14.1377 1 15.6458 2.29433 18.6654 4.88136L20.2853 6.26964C21.9538 7.70166 22.7897 8.41605 23.2336 9.38315C23.6791 10.3503 23.6791 11.4502 23.6791 13.6501V20.5202C23.6791 23.5754 23.6791 25.1014 22.7298 26.0506C21.7805 26.9999 20.2545 26.9999 17.1993 26.9999H7.47973C4.42454 26.9999 2.89856 26.9999 1.94928 26.0506C1 25.1014 1 23.5754 1 20.5202V13.6517Z" stroke="#636363" stroke-width="2"/>
<path d="M16.3887 27.0001V18.9005C16.3887 18.4708 16.2181 18.0588 15.9143 17.755C15.6105 17.4512 15.1984 17.2805 14.7688 17.2805H9.909C9.47936 17.2805 9.06733 17.4512 8.76353 17.755C8.45973 18.0588 8.28906 18.4708 8.28906 18.9005V27.0001" stroke="#636363" stroke-width="2" stroke-linecap="round" stroke-linejoin="round"/>
</svg>
