<svg width="23" height="24" viewBox="0 0 23 24" fill="none" xmlns="http://www.w3.org/2000/svg">
<path d="M10.4541 0.150391C10.7856 0.150391 11.0576 0.263089 11.2793 0.489258C11.4732 0.687138 11.5826 0.924395 11.6064 1.20801L11.6113 1.33301C11.6105 1.67314 11.4987 1.95227 11.2773 2.17969C11.0568 2.40616 10.786 2.51819 10.4551 2.5166H2.46387V21.4834H10.4541C10.7856 21.4834 11.0576 21.5961 11.2793 21.8223C11.501 22.0485 11.6121 22.3264 11.6113 22.666C11.6105 23.0062 11.4987 23.2853 11.2773 23.5127C11.0568 23.7393 10.7861 23.8512 10.4551 23.8496H2.61328C1.93583 23.8495 1.35956 23.6056 0.875977 23.1123C0.392165 22.6187 0.151216 22.0282 0.150391 21.333V2.66699C0.150391 1.97284 0.390361 1.38231 0.875 0.888672C1.299 0.456803 1.79398 0.216314 2.36426 0.162109L2.61426 0.150391H10.4541ZM16.9932 6.06641C17.321 6.05618 17.5968 6.16744 17.8291 6.40527L22.501 11.1719C22.7363 11.412 22.8496 11.6859 22.8496 12C22.8496 12.3141 22.7363 12.588 22.501 12.8281L17.8291 17.5947C17.5957 17.8328 17.325 17.943 17.0098 17.9336C16.6927 17.9241 16.4193 17.8038 16.1836 17.5645C15.9717 17.3276 15.8717 17.0493 15.8818 16.7217C15.8921 16.3904 16.0026 16.1206 16.2129 15.9043L16.2139 15.9053L18.6309 13.4385L18.8809 13.1836H9.14746C8.81614 13.1835 8.54489 13.0707 8.32422 12.8447C8.10316 12.6184 7.99207 12.3399 7.99121 12C7.99043 11.6605 8.10174 11.3826 8.32422 11.1562C8.54692 10.9298 8.81808 10.8165 9.14746 10.8164H18.8809L18.6309 10.5615L16.1807 8.06152C15.9699 7.84635 15.8643 7.58447 15.8643 7.2666C15.8643 6.94842 15.9705 6.67296 16.1855 6.43359C16.3967 6.19857 16.6624 6.07677 16.9932 6.06641Z" fill="black" stroke="white" stroke-width="0.3"/>
</svg>
