<svg width="22" height="24" viewBox="0 0 22 24" fill="none" xmlns="http://www.w3.org/2000/svg">
<path d="M2.75 0.0996094H19.25C20.7135 0.0996094 21.9004 1.27796 21.9004 2.72754V5.2627C21.9004 5.82805 21.7479 6.38363 21.459 6.87109C21.1699 7.35858 20.7544 7.76113 20.2559 8.03613L13.9258 11.5225L13.7598 11.6143L13.9297 11.7002C15.2349 12.3538 16.2798 13.4243 16.8955 14.7393C17.5112 16.0542 17.6618 17.5369 17.3232 18.9473C16.9846 20.3574 16.1764 21.613 15.0293 22.5117C13.8819 23.4105 12.4623 23.9004 11 23.9004C9.53769 23.9004 8.11806 23.4105 6.9707 22.5117C5.82361 21.613 5.01536 20.3574 4.67676 18.9473C4.33818 17.5369 4.4888 16.0542 5.10449 14.7393C5.72017 13.4243 6.76512 12.3538 8.07031 11.7002L8.24023 11.6143L8.07422 11.5225L1.74707 8.03418C1.24838 7.75962 0.832435 7.35729 0.542969 6.87012C0.253574 6.38299 0.100177 5.82798 0.0996094 5.2627V2.72754C0.0996094 1.27796 1.28645 0.0996094 2.75 0.0996094ZM11 12.9922C9.80689 12.9922 8.66232 13.4619 7.81836 14.2988C6.97436 15.1359 6.5 16.2719 6.5 17.4561C6.50001 18.6402 6.97437 19.7762 7.81836 20.6133C8.66231 21.4502 9.80691 21.9199 11 21.9199C12.1931 21.9199 13.3377 21.4502 14.1816 20.6133C15.0256 19.7762 15.5 18.6402 15.5 17.4561C15.5 16.2719 15.0256 15.1359 14.1816 14.2988C13.3377 13.4619 12.1931 12.9922 11 12.9922ZM8.7002 9.59863L8.75195 9.62695L10.9521 10.8408L11 10.8672L11.0479 10.8408L13.248 9.62695L13.2998 9.59863V2.08203H8.7002V9.59863ZM2.75 2.08203C2.57802 2.08203 2.41295 2.14974 2.29102 2.27051C2.16903 2.3915 2.09961 2.55608 2.09961 2.72754V5.2627C2.0996 5.47518 2.15709 5.68413 2.26562 5.86719C2.37409 6.05011 2.53005 6.20062 2.7168 6.30371L6.55176 8.41602L6.7002 8.49805V2.08203H2.75ZM15.2998 8.49805L15.4482 8.41602L19.2832 6.30371C19.4699 6.20062 19.6259 6.05011 19.7344 5.86719C19.8429 5.68413 19.9004 5.47518 19.9004 5.2627V2.72754C19.9004 2.55607 19.831 2.3915 19.709 2.27051C19.5871 2.14974 19.422 2.08203 19.25 2.08203H15.2998V8.49805Z" fill="black" stroke="white" stroke-width="0.2"/>
</svg>
