<svg width="24" height="24" viewBox="0 0 24 24" fill="none" xmlns="http://www.w3.org/2000/svg">
<path d="M12 0.150391C13.647 0.150391 15.1879 0.462799 16.624 1.08789C18.0635 1.71449 19.3145 2.55948 20.3779 3.62207C21.4414 4.68463 22.2865 5.9356 22.9131 7.37598C23.5382 8.81302 23.8505 10.3539 23.8496 12C23.8487 13.6462 23.5364 15.187 22.9131 16.624C22.2883 18.0643 21.4431 19.3154 20.3779 20.3779C19.3126 21.4406 18.0617 22.2856 16.624 22.9131C15.1897 23.539 13.6488 23.8514 12 23.8496L11.4854 23.8398C8.92883 23.7416 6.65477 22.9064 4.65918 21.333C2.5298 19.654 1.14912 17.5099 0.512695 14.8975L0.511719 14.8945L0.489258 14.7891C0.451323 14.5453 0.514384 14.3226 0.683594 14.1113C0.87936 13.867 1.14266 13.7237 1.48438 13.6826H1.48535C1.80907 13.6422 2.0964 13.7025 2.35449 13.8613C2.5777 13.9987 2.74292 14.196 2.84863 14.4609L2.89062 14.5781C3.43325 16.6077 4.55121 18.2675 6.24219 19.5527C7.93519 20.8394 9.85641 21.4834 12 21.4834C14.6391 21.4834 16.8835 20.5629 18.7236 18.7236C20.5638 16.8844 21.4843 14.64 21.4834 12C21.4825 9.36022 20.5618 7.11666 18.7236 5.27832C17 3.55473 14.9196 2.63668 12.4902 2.52734L12 2.5166C10.4426 2.5166 8.98512 2.8779 7.62988 3.60059C6.27624 4.32253 5.13606 5.31588 4.21191 6.57812L4.03809 6.81641H6.66699C7.00676 6.81648 7.28526 6.9298 7.51172 7.15625C7.73824 7.38277 7.85041 7.66119 7.84961 8C7.84873 8.33894 7.73559 8.61722 7.50977 8.84473C7.28433 9.07173 7.00652 9.18519 6.66699 9.18359H1.33301C0.99331 9.18352 0.715713 9.06994 0.490234 8.84375C0.264438 8.61717 0.15127 8.33904 0.150391 8V2.66699C0.150391 2.32707 0.263872 2.04882 0.490234 1.82324C0.716833 1.5976 0.994951 1.4842 1.33398 1.4834C1.67241 1.48267 1.95032 1.59591 2.17773 1.82324C2.40523 2.05074 2.5182 2.32848 2.5166 2.66602V4.89551L2.78418 4.56055C3.90339 3.15605 5.26873 2.06969 6.88184 1.30176C8.49529 0.533684 10.2009 0.150391 12 0.150391ZM12 5.4834C12.3386 5.4826 12.6172 5.59574 12.8447 5.82324C13.0722 6.05074 13.1852 6.32848 13.1836 6.66602V11.5283L13.2275 11.5723L16.5605 14.9062C16.7741 15.1198 16.8838 15.3914 16.8838 15.7334C16.8838 16.0754 16.7741 16.347 16.5605 16.5605C16.347 16.7741 16.0754 16.8838 15.7334 16.8838C15.3914 16.8838 15.1198 16.7741 14.9062 16.5605L11.1729 12.8271C11.0531 12.7074 10.965 12.5742 10.9062 12.4277C10.8468 12.2793 10.8164 12.1262 10.8164 11.9668V6.66699C10.8164 6.32707 10.9299 6.04882 11.1562 5.82324C11.3828 5.59746 11.661 5.48428 12 5.4834Z" fill="black" stroke="white" stroke-width="0.3"/>
</svg>
