<svg width="44" height="44" viewBox="0 0 44 44" fill="none" xmlns="http://www.w3.org/2000/svg">
<rect width="44" height="44" rx="5" fill="#F2F2F2"/>
<path d="M21.9953 12C23.9464 11.9973 25.8217 12.8103 27.2241 14.267C28.6265 15.7237 29.4458 17.7095 29.5083 19.8037L29.5123 20.0728V24.4827L30.8954 27.8798C30.9786 28.0845 31.013 28.3082 30.9956 28.5308C30.9782 28.7533 30.9094 28.9677 30.7955 29.1546C30.6817 29.3415 30.5263 29.495 30.3434 29.6013C30.1605 29.7076 29.9558 29.7633 29.7478 29.7634L25.0021 29.7667C25.0031 30.6073 24.6989 31.4152 24.154 32.0188C23.6091 32.6223 22.8665 32.9738 22.0841 32.9986C21.3017 33.0234 20.5411 32.7195 19.964 32.1516C19.3869 31.5837 19.0387 30.7964 18.9936 29.9572L18.9886 29.7634H14.2529C14.0451 29.7634 13.8406 29.708 13.6578 29.602C13.475 29.496 13.3196 29.3429 13.2055 29.1564C13.0915 28.9699 13.0225 28.7559 13.0046 28.5336C12.9868 28.3113 13.0207 28.0877 13.1033 27.883L14.4784 24.4838V20.0728C14.4784 15.6005 17.838 12 21.9953 12ZM23.4987 29.7645L20.4919 29.7667C20.4919 30.1814 20.6404 30.5802 20.9068 30.8805C21.1731 31.1808 21.5369 31.3595 21.9226 31.3796C22.3083 31.3997 22.6864 31.2596 22.9786 30.9883C23.2707 30.7171 23.4544 30.3355 23.4917 29.9227L23.4987 29.7645ZM21.9953 13.6146C18.6678 13.6146 15.9818 16.4928 15.9818 20.0728V24.8196L14.6347 28.1499H29.365L28.0089 24.8207V20.0868L28.0059 19.8446C27.9533 18.1713 27.2967 16.5856 26.175 15.4229C25.0532 14.2602 23.5543 13.6117 21.9953 13.6146Z" fill="black"/>
</svg>
