<svg width="20" height="20" viewBox="0 0 20 20" fill="none" xmlns="http://www.w3.org/2000/svg">
<path d="M15 17.5C15 16.1739 14.4732 14.9021 13.5355 13.9645C12.5979 13.0268 11.3261 12.5 10 12.5C8.67392 12.5 7.40215 13.0268 6.46447 13.9645C5.52678 14.9021 5 16.1739 5 17.5" stroke="#364153" stroke-width="1.66667" stroke-linecap="round" stroke-linejoin="round"/>
<path d="M10 12.5C11.8409 12.5 13.3333 11.0076 13.3333 9.16665C13.3333 7.3257 11.8409 5.83331 10 5.83331C8.15905 5.83331 6.66667 7.3257 6.66667 9.16665C6.66667 11.0076 8.15905 12.5 10 12.5Z" stroke="#364153" stroke-width="1.66667" stroke-linecap="round" stroke-linejoin="round"/>
<path d="M15.8333 2.5H4.16667C3.24619 2.5 2.5 3.24619 2.5 4.16667V15.8333C2.5 16.7538 3.24619 17.5 4.16667 17.5H15.8333C16.7538 17.5 17.5 16.7538 17.5 15.8333V4.16667C17.5 3.24619 16.7538 2.5 15.8333 2.5Z" stroke="#364153" stroke-width="1.66667" stroke-linecap="round" stroke-linejoin="round"/>
</svg>
