<svg width="26" height="26" viewBox="0 0 26 26" fill="none" xmlns="http://www.w3.org/2000/svg">
<path fill-rule="evenodd" clip-rule="evenodd" d="M17.728 9.45408C17.728 10.7078 17.2299 11.9102 16.3434 12.7968C15.4569 13.6833 14.2545 14.1814 13.0007 14.1814C11.747 14.1814 10.5446 13.6833 9.65802 12.7968C8.77149 11.9102 8.27344 10.7078 8.27344 9.45408C8.27344 8.20033 8.77149 6.99793 9.65802 6.11139C10.5446 5.22486 11.747 4.72681 13.0007 4.72681C14.2545 4.72681 15.4569 5.22486 16.3434 6.11139C17.2299 6.99793 17.728 8.20033 17.728 9.45408ZM15.3643 9.45408C15.3643 10.081 15.1153 10.6822 14.6721 11.1254C14.2288 11.5687 13.6276 11.8177 13.0007 11.8177C12.3738 11.8177 11.7726 11.5687 11.3294 11.1254C10.8861 10.6822 10.6371 10.081 10.6371 9.45408C10.6371 8.8272 10.8861 8.226 11.3294 7.78274C11.7726 7.33947 12.3738 7.09044 13.0007 7.09044C13.6276 7.09044 14.2288 7.33947 14.6721 7.78274C15.1153 8.226 15.3643 8.8272 15.3643 9.45408Z" fill="#636363"/>
<path fill-rule="evenodd" clip-rule="evenodd" d="M13 0C5.82045 0 0 5.82045 0 13C0 20.1795 5.82045 26 13 26C20.1795 26 26 20.1795 26 13C26 5.82045 20.1795 0 13 0ZM2.36364 13C2.36364 15.47 3.20627 17.7438 4.61855 19.5496C5.61061 18.2474 6.89018 17.1921 8.35739 16.466C9.8246 15.7398 11.4398 15.3626 13.0768 15.3636C14.6928 15.3618 16.2879 15.7289 17.7404 16.4372C19.193 17.1454 20.4646 18.176 21.4583 19.4504C22.4823 18.1073 23.1717 16.5398 23.4696 14.8774C23.7675 13.215 23.6652 11.5056 23.1713 9.89062C22.6774 8.2756 21.806 6.80142 20.6292 5.59004C19.4524 4.37867 18.0041 3.46492 16.4041 2.92442C14.8041 2.38391 13.0983 2.23218 11.428 2.48179C9.75771 2.73139 8.17084 3.37514 6.79873 4.35979C5.42661 5.34444 4.30869 6.64166 3.53745 8.14414C2.76622 9.64662 2.36385 11.3111 2.36364 13ZM13 23.6364C10.5583 23.6403 8.19017 22.8003 6.29673 21.2585C7.05877 20.1673 8.07323 19.2763 9.25373 18.6614C10.4342 18.0466 11.7458 17.7261 13.0768 17.7273C14.3912 17.7261 15.6869 18.0386 16.8563 18.6388C18.0256 19.239 19.0349 20.1096 19.8002 21.1782C17.8921 22.7701 15.4849 23.6403 13 23.6364Z" fill="#636363"/>
</svg>
