<svg width="24" height="24" viewBox="0 0 24 24" fill="none" xmlns="http://www.w3.org/2000/svg">
<path d="M12 4.46289C13.1308 4.46289 14.216 4.91233 15.0156 5.71191C15.815 6.5114 16.2636 7.59597 16.2637 8.72656C16.2637 9.85735 15.8152 10.9426 15.0156 11.7422C14.216 12.5418 13.1308 12.9902 12 12.9902C10.8694 12.9901 9.78484 12.5416 8.98535 11.7422C8.18576 10.9426 7.73633 9.85735 7.73633 8.72656C7.73642 7.5959 8.18585 6.51142 8.98535 5.71191C9.78485 4.91241 10.8693 4.46298 12 4.46289ZM12 6.44531C11.395 6.44541 10.8146 6.68544 10.3867 7.11328C9.95888 7.54112 9.71884 8.12151 9.71875 8.72656C9.71875 9.33174 9.95879 9.9129 10.3867 10.3408C10.8145 10.7686 11.395 11.0087 12 11.0088C12.6052 11.0088 13.1863 10.7687 13.6143 10.3408C14.0422 9.9129 14.2822 9.33174 14.2822 8.72656C14.2821 8.12158 14.042 7.54111 13.6143 7.11328C13.1863 6.68536 12.6052 6.44531 12 6.44531Z" fill="black" stroke="white" stroke-width="0.2"/>
<path d="M12 0.0996094C18.572 0.0996094 23.9004 5.42796 23.9004 12C23.9004 18.572 18.572 23.9004 12 23.9004C5.42796 23.9004 0.0996094 18.572 0.0996094 12C0.0996094 5.42796 5.42796 0.0996094 12 0.0996094ZM12.0713 16.2637C10.8266 16.2626 9.60004 16.5628 8.49609 17.1377C7.39211 17.7127 6.44312 18.5459 5.73047 19.5664L5.67676 19.6426L5.74902 19.7012C7.40436 21.049 9.44895 21.8219 11.5742 21.9102L12 21.918C14.3171 21.9216 16.5616 21.1103 18.3408 19.626L18.4121 19.5664L18.3584 19.4912C17.6427 18.4919 16.6989 17.6775 15.6055 17.1162C14.512 16.555 13.3003 16.2627 12.0713 16.2637ZM15.1738 2.60449C13.682 2.1006 12.0916 1.95966 10.5342 2.19238C8.97672 2.42513 7.4972 3.02526 6.21777 3.94336C4.93843 4.86143 3.89591 6.07083 3.17676 7.47168C2.4576 8.87271 2.08223 10.4252 2.08203 12L2.09082 12.4297C2.18198 14.5665 2.95 16.5288 4.18457 18.1074L4.26465 18.209L4.34277 18.1064C5.24917 16.9167 6.41829 15.9525 7.75879 15.2891C9.09933 14.6256 10.5756 14.2813 12.0713 14.2822C13.5477 14.2805 15.005 14.6156 16.332 15.2627C17.659 15.9098 18.8206 16.8514 19.7285 18.0156L19.8086 18.1182L19.8867 18.0146C20.8415 16.7624 21.4849 15.301 21.7627 13.751C22.0405 12.2008 21.9449 10.6066 21.4844 9.10059C21.0238 7.59477 20.2114 6.22034 19.1143 5.09082C18.0169 3.96124 16.6658 3.1085 15.1738 2.60449Z" fill="black" stroke="white" stroke-width="0.2"/>
</svg>
