<svg width="26" height="26" viewBox="0 0 26 26" fill="none" xmlns="http://www.w3.org/2000/svg">
<path d="M0 13C0 20.1799 5.8201 26 13 26C20.1799 26 26 20.1799 26 13C26 5.8201 20.1799 0 13 0C5.8201 0 0 5.8201 0 13ZM23.4 13C23.4 15.7583 22.3043 18.4035 20.3539 20.3539C18.4035 22.3043 15.7583 23.4 13 23.4C10.2417 23.4 7.59647 22.3043 5.64609 20.3539C3.69571 18.4035 2.6 15.7583 2.6 13C2.6 10.2417 3.69571 7.59647 5.64609 5.64609C7.59647 3.69571 10.2417 2.6 13 2.6C15.7583 2.6 18.4035 3.69571 20.3539 5.64609C22.3043 7.59647 23.4 10.2417 23.4 13ZM13 13V5.2C15.0687 5.2 17.0527 6.02178 18.5154 7.48457C19.9782 8.94735 20.8 10.9313 20.8 13H13Z" fill="#636363"/>
</svg>
