<svg width="24" height="24" viewBox="0 0 24 24" fill="none" xmlns="http://www.w3.org/2000/svg">
<mask id="path-1-inside-1_3037_9969" fill="white">
<path d="M8.40001 12.0024H6.00001C5.68175 12.0024 5.37652 12.1288 5.15148 12.3538C4.92644 12.5788 4.80001 12.8839 4.80001 13.2021C4.80001 13.5203 4.92644 13.8255 5.15148 14.0505C5.37652 14.2755 5.68175 14.4019 6.00001 14.4019H8.40001C8.71827 14.4019 9.02349 14.2755 9.24853 14.0505C9.47358 13.8255 9.60001 13.5203 9.60001 13.2021C9.60001 12.8839 9.47358 12.5788 9.24853 12.3538C9.02349 12.1288 8.71827 12.0024 8.40001 12.0024ZM7.20001 9.60286H12C12.3183 9.60286 12.6235 9.47646 12.8485 9.25146C13.0736 9.02646 13.2 8.7213 13.2 8.4031C13.2 8.0849 13.0736 7.77974 12.8485 7.55474C12.6235 7.32974 12.3183 7.20334 12 7.20334H7.20001C6.88175 7.20334 6.57652 7.32974 6.35148 7.55474C6.12644 7.77974 6.00001 8.0849 6.00001 8.4031C6.00001 8.7213 6.12644 9.02646 6.35148 9.25146C6.57652 9.47646 6.88175 9.60286 7.20001 9.60286ZM8.40001 16.8014H6.00001C5.68175 16.8014 5.37652 16.9278 5.15148 17.1528C4.92644 17.3778 4.80001 17.683 4.80001 18.0012C4.80001 18.3194 4.92644 18.6246 5.15148 18.8496C5.37652 19.0746 5.68175 19.201 6.00001 19.201H8.40001C8.71827 19.201 9.02349 19.0746 9.24853 18.8496C9.47358 18.6246 9.60001 18.3194 9.60001 18.0012C9.60001 17.683 9.47358 17.3778 9.24853 17.1528C9.02349 16.9278 8.71827 16.8014 8.40001 16.8014ZM22.8 12.0024H19.2V1.20453C19.2008 0.99312 19.1458 0.785242 19.0404 0.601945C18.9351 0.418648 18.7831 0.266442 18.6 0.160738C18.4176 0.0554366 18.2106 0 18 0C17.7894 0 17.5824 0.0554366 17.4 0.160738L13.8 2.22433L10.2 0.160738C10.0176 0.0554366 9.81065 0 9.60001 0C9.38936 0 9.18243 0.0554366 9.00001 0.160738L5.40001 2.22433L1.80001 0.160738C1.61759 0.0554366 1.41065 0 1.20001 0C0.989365 0 0.782432 0.0554366 0.600009 0.160738C0.416884 0.266442 0.264947 0.418648 0.159583 0.601945C0.0542193 0.785242 -0.000830021 0.99312 9.45945e-06 1.20453V20.4007C9.45945e-06 21.3553 0.379294 22.2708 1.05442 22.9458C1.72956 23.6208 2.64523 24 3.60001 24H20.4C21.3548 24 22.2705 23.6208 22.9456 22.9458C23.6207 22.2708 24 21.3553 24 20.4007V13.2021C24 12.8839 23.8736 12.5788 23.6485 12.3538C23.4235 12.1288 23.1183 12.0024 22.8 12.0024ZM3.60001 21.6005C3.28175 21.6005 2.97652 21.4741 2.75148 21.2491C2.52644 21.0241 2.40001 20.7189 2.40001 20.4007V3.28012L4.80001 4.64785C4.98521 4.74456 5.19106 4.79507 5.40001 4.79507C5.60895 4.79507 5.8148 4.74456 6.00001 4.64785L9.60001 2.58426L13.2 4.64785C13.3852 4.74456 13.5911 4.79507 13.8 4.79507C14.009 4.79507 14.2148 4.74456 14.4 4.64785L16.8 3.28012V20.4007C16.8032 20.81 16.8763 21.2157 17.016 21.6005H3.60001ZM21.6 20.4007C21.6 20.7189 21.4736 21.0241 21.2485 21.2491C21.0235 21.4741 20.7183 21.6005 20.4 21.6005C20.0817 21.6005 19.7765 21.4741 19.5515 21.2491C19.3264 21.0241 19.2 20.7189 19.2 20.4007V14.4019H21.6V20.4007ZM13.872 17.0054C13.8048 16.9604 13.7323 16.9242 13.656 16.8974C13.5845 16.8609 13.5075 16.8365 13.428 16.8254C13.2352 16.7868 13.0359 16.7962 12.8476 16.8527C12.6593 16.9092 12.4877 17.011 12.348 17.1494C12.1287 17.3793 12.0044 17.6835 12 18.0012C11.9981 18.1572 12.0266 18.312 12.084 18.4571C12.1494 18.6028 12.2386 18.7366 12.348 18.853C12.4653 18.9581 12.5991 19.0432 12.744 19.105C12.8876 19.1684 13.043 19.2012 13.2 19.2012C13.357 19.2012 13.5124 19.1684 13.656 19.105C13.8009 19.0432 13.9347 18.9581 14.052 18.853C14.1632 18.7409 14.2512 18.608 14.3109 18.4618C14.3706 18.3156 14.4009 18.1591 14.4 18.0012C14.3956 17.6835 14.2713 17.3793 14.052 17.1494C13.9943 17.0985 13.9343 17.0505 13.872 17.0054ZM14.04 12.3503C13.8999 12.2139 13.7285 12.1138 13.5409 12.0587C13.3532 12.0036 13.1549 11.9952 12.9633 12.0342C12.7716 12.0733 12.5924 12.1585 12.4413 12.2826C12.2901 12.4067 12.1716 12.5659 12.096 12.7462C12.0213 12.928 11.9924 13.1253 12.0119 13.3209C12.0313 13.5164 12.0985 13.7042 12.2075 13.8677C12.3165 14.0312 12.4641 14.1654 12.6371 14.2585C12.8102 14.3517 13.0035 14.4009 13.2 14.4019C13.5183 14.4019 13.8235 14.2755 14.0485 14.0505C14.2736 13.8255 14.4 13.5203 14.4 13.2021C14.3981 13.0454 14.3655 12.8905 14.304 12.7462C14.2465 12.5963 14.1564 12.461 14.04 12.3503Z"/>
</mask>
<path d="M8.40001 12.0024H6.00001C5.68175 12.0024 5.37652 12.1288 5.15148 12.3538C4.92644 12.5788 4.80001 12.8839 4.80001 13.2021C4.80001 13.5203 4.92644 13.8255 5.15148 14.0505C5.37652 14.2755 5.68175 14.4019 6.00001 14.4019H8.40001C8.71827 14.4019 9.02349 14.2755 9.24853 14.0505C9.47358 13.8255 9.60001 13.5203 9.60001 13.2021C9.60001 12.8839 9.47358 12.5788 9.24853 12.3538C9.02349 12.1288 8.71827 12.0024 8.40001 12.0024ZM7.20001 9.60286H12C12.3183 9.60286 12.6235 9.47646 12.8485 9.25146C13.0736 9.02646 13.2 8.7213 13.2 8.4031C13.2 8.0849 13.0736 7.77974 12.8485 7.55474C12.6235 7.32974 12.3183 7.20334 12 7.20334H7.20001C6.88175 7.20334 6.57652 7.32974 6.35148 7.55474C6.12644 7.77974 6.00001 8.0849 6.00001 8.4031C6.00001 8.7213 6.12644 9.02646 6.35148 9.25146C6.57652 9.47646 6.88175 9.60286 7.20001 9.60286ZM8.40001 16.8014H6.00001C5.68175 16.8014 5.37652 16.9278 5.15148 17.1528C4.92644 17.3778 4.80001 17.683 4.80001 18.0012C4.80001 18.3194 4.92644 18.6246 5.15148 18.8496C5.37652 19.0746 5.68175 19.201 6.00001 19.201H8.40001C8.71827 19.201 9.02349 19.0746 9.24853 18.8496C9.47358 18.6246 9.60001 18.3194 9.60001 18.0012C9.60001 17.683 9.47358 17.3778 9.24853 17.1528C9.02349 16.9278 8.71827 16.8014 8.40001 16.8014ZM22.8 12.0024H19.2V1.20453C19.2008 0.99312 19.1458 0.785242 19.0404 0.601945C18.9351 0.418648 18.7831 0.266442 18.6 0.160738C18.4176 0.0554366 18.2106 0 18 0C17.7894 0 17.5824 0.0554366 17.4 0.160738L13.8 2.22433L10.2 0.160738C10.0176 0.0554366 9.81065 0 9.60001 0C9.38936 0 9.18243 0.0554366 9.00001 0.160738L5.40001 2.22433L1.80001 0.160738C1.61759 0.0554366 1.41065 0 1.20001 0C0.989365 0 0.782432 0.0554366 0.600009 0.160738C0.416884 0.266442 0.264947 0.418648 0.159583 0.601945C0.0542193 0.785242 -0.000830021 0.99312 9.45945e-06 1.20453V20.4007C9.45945e-06 21.3553 0.379294 22.2708 1.05442 22.9458C1.72956 23.6208 2.64523 24 3.60001 24H20.4C21.3548 24 22.2705 23.6208 22.9456 22.9458C23.6207 22.2708 24 21.3553 24 20.4007V13.2021C24 12.8839 23.8736 12.5788 23.6485 12.3538C23.4235 12.1288 23.1183 12.0024 22.8 12.0024ZM3.60001 21.6005C3.28175 21.6005 2.97652 21.4741 2.75148 21.2491C2.52644 21.0241 2.40001 20.7189 2.40001 20.4007V3.28012L4.80001 4.64785C4.98521 4.74456 5.19106 4.79507 5.40001 4.79507C5.60895 4.79507 5.8148 4.74456 6.00001 4.64785L9.60001 2.58426L13.2 4.64785C13.3852 4.74456 13.5911 4.79507 13.8 4.79507C14.009 4.79507 14.2148 4.74456 14.4 4.64785L16.8 3.28012V20.4007C16.8032 20.81 16.8763 21.2157 17.016 21.6005H3.60001ZM21.6 20.4007C21.6 20.7189 21.4736 21.0241 21.2485 21.2491C21.0235 21.4741 20.7183 21.6005 20.4 21.6005C20.0817 21.6005 19.7765 21.4741 19.5515 21.2491C19.3264 21.0241 19.2 20.7189 19.2 20.4007V14.4019H21.6V20.4007ZM13.872 17.0054C13.8048 16.9604 13.7323 16.9242 13.656 16.8974C13.5845 16.8609 13.5075 16.8365 13.428 16.8254C13.2352 16.7868 13.0359 16.7962 12.8476 16.8527C12.6593 16.9092 12.4877 17.011 12.348 17.1494C12.1287 17.3793 12.0044 17.6835 12 18.0012C11.9981 18.1572 12.0266 18.312 12.084 18.4571C12.1494 18.6028 12.2386 18.7366 12.348 18.853C12.4653 18.9581 12.5991 19.0432 12.744 19.105C12.8876 19.1684 13.043 19.2012 13.2 19.2012C13.357 19.2012 13.5124 19.1684 13.656 19.105C13.8009 19.0432 13.9347 18.9581 14.052 18.853C14.1632 18.7409 14.2512 18.608 14.3109 18.4618C14.3706 18.3156 14.4009 18.1591 14.4 18.0012C14.3956 17.6835 14.2713 17.3793 14.052 17.1494C13.9943 17.0985 13.9343 17.0505 13.872 17.0054ZM14.04 12.3503C13.8999 12.2139 13.7285 12.1138 13.5409 12.0587C13.3532 12.0036 13.1549 11.9952 12.9633 12.0342C12.7716 12.0733 12.5924 12.1585 12.4413 12.2826C12.2901 12.4067 12.1716 12.5659 12.096 12.7462C12.0213 12.928 11.9924 13.1253 12.0119 13.3209C12.0313 13.5164 12.0985 13.7042 12.2075 13.8677C12.3165 14.0312 12.4641 14.1654 12.6371 14.2585C12.8102 14.3517 13.0035 14.4009 13.2 14.4019C13.5183 14.4019 13.8235 14.2755 14.0485 14.0505C14.2736 13.8255 14.4 13.5203 14.4 13.2021C14.3981 13.0454 14.3655 12.8905 14.304 12.7462C14.2465 12.5963 14.1564 12.461 14.04 12.3503Z" fill="black" stroke="white" stroke-width="0.6" mask="url(#path-1-inside-1_3037_9969)"/>
</svg>
