<svg width="18" height="26" viewBox="0 0 18 26" fill="none" xmlns="http://www.w3.org/2000/svg">
<path d="M14.7143 1H3.28571C2.67951 1 2.09812 1.2867 1.66947 1.79704C1.24082 2.30738 1 2.99954 1 3.72127V24.3185C1.00003 24.4377 1.02634 24.5547 1.0763 24.6579C1.12625 24.7612 1.1981 24.847 1.28465 24.9068C1.37121 24.9666 1.46943 24.9982 1.5695 24.9986C1.66956 24.999 1.76797 24.9681 1.85486 24.9091L7.86629 20.8204C8.21158 20.5855 8.60235 20.462 9 20.462C9.39765 20.462 9.78842 20.5855 10.1337 20.8204L16.1451 24.9104C16.2321 24.9696 16.3306 25.0005 16.4308 25C16.531 24.9995 16.6293 24.9677 16.7158 24.9078C16.8024 24.8478 16.8743 24.7618 16.9241 24.6584C16.974 24.555 17.0002 24.4378 17 24.3185V3.72127C17 2.99954 16.7592 2.30738 16.3305 1.79704C15.9019 1.2867 15.3205 1 14.7143 1Z" stroke="black" stroke-width="2" stroke-linecap="round" stroke-linejoin="round"/>
</svg>
