<svg viewBox="0 0 24 24" xmlns="http://www.w3.org/2000/svg">
    <path fill="#636363" d="M19.14,12.94c0.04-0.31,0.06-0.63,0.06-0.94s-0.02-0.63-0.06-0.94l2.03-1.58
  c0.18-0.14,0.23-0.41,0.12-0.61l-1.92-3.32c-0.11-0.2-0.36-0.28-0.56-0.22l-2.39,0.96
  c-0.5-0.38-1.03-0.7-1.62-0.94l-0.36-2.54C14.46,2.18,14.24,2,14,2h-4c-0.24,0-0.46,0.18-0.49,0.42
  l-0.36,2.54c-0.59,0.24-1.13,0.56-1.62,0.94l-2.39-0.96c-0.2-0.08-0.45,0.02-0.56,0.22L2.66,8.88
  c-0.11,0.2-0.06,0.47,0.12,0.61l2.03,1.58C4.77,11.37,4.75,11.69,4.75,12s0.02,0.63,0.06,0.94
  l-2.03,1.58c-0.18,0.14-0.23,0.41-0.12,0.61l1.92,3.32c0.11,0.2,0.36,0.28,0.56,0.22l2.39-0.96
  c0.5,0.38,1.03,0.7,1.62,0.94l0.36,2.54C9.54,21.82,9.76,22,10,22h4c0.24,0,0.46-0.18,0.49-0.42
  l0.36-2.54c0.59-0.24,1.13-0.56,1.62-0.94l2.39,0.96c0.2,0.08,0.45-0.02,0.56-0.22l1.92-3.32
  c0.11-0.2,0.06-0.47-0.12-0.61L19.14,12.94zM12,15.5c-1.93,0-3.5-1.57-3.5-3.5
  s1.57-3.5,3.5-3.5s3.5,1.57,3.5,3.5S13.93,15.5,12,15.5z"/>
</svg>