<svg width="50" height="50" viewBox="0 0 50 50" fill="none" xmlns="http://www.w3.org/2000/svg">
<path d="M22.9167 4.16699V8.33366" stroke="#4F39F6" stroke-width="2.66667" stroke-linecap="round" stroke-linejoin="round"/>
<path d="M10.4167 4.16699V8.33366" stroke="#4F39F6" stroke-width="2.66667" stroke-linecap="round" stroke-linejoin="round"/>
<path d="M10.4167 6.25H8.33332C7.22825 6.25 6.16845 6.68899 5.38704 7.47039C4.60564 8.25179 4.16666 9.3116 4.16666 10.4167V18.75C4.16666 22.0652 5.48362 25.2446 7.82782 27.5888C10.172 29.933 13.3515 31.25 16.6667 31.25C19.9819 31.25 23.1613 29.933 25.5055 27.5888C27.8497 25.2446 29.1667 22.0652 29.1667 18.75V10.4167C29.1667 9.3116 28.7277 8.25179 27.9463 7.47039C27.1649 6.68899 26.1051 6.25 25 6.25H22.9167" stroke="#4F39F6" stroke-width="2.66667" stroke-linecap="round" stroke-linejoin="round"/>
<path d="M16.6667 31.25C16.6667 34.5652 17.9836 37.7446 20.3278 40.0888C22.672 42.433 25.8515 43.75 29.1667 43.75C32.4819 43.75 35.6613 42.433 38.0055 40.0888C40.3497 37.7446 41.6667 34.5652 41.6667 31.25V25" stroke="#4F39F6" stroke-width="2.66667" stroke-linecap="round" stroke-linejoin="round"/>
<path d="M41.6667 25.0003C43.9679 25.0003 45.8333 23.1348 45.8333 20.8337C45.8333 18.5325 43.9679 16.667 41.6667 16.667C39.3655 16.667 37.5 18.5325 37.5 20.8337C37.5 23.1348 39.3655 25.0003 41.6667 25.0003Z" stroke="#4F39F6" stroke-width="2.66667" stroke-linecap="round" stroke-linejoin="round"/>
</svg>
