<svg width="28" height="28" viewBox="0 0 28 28" fill="none" xmlns="http://www.w3.org/2000/svg">
<path d="M20.5 1C20.5 1.663 20.5 1.9945 20.5884 2.3026C20.6369 2.47247 20.7041 2.63497 20.7899 2.7901C20.9459 3.0709 21.1799 3.3049 21.6479 3.7742L24.2258 6.3508C24.6938 6.8188 24.9278 7.0528 25.2099 7.2101C25.3642 7.29677 25.5267 7.36393 25.6974 7.4116C26.0055 7.5 26.337 7.5 27 7.5M13.6009 7.5L7.1945 13.9064C5.81 15.2909 5.1184 15.9825 4.9533 16.8119C4.8818 17.1707 4.8818 17.5399 4.9533 17.9C5.1184 18.7294 5.8113 19.421 7.1945 20.8055C8.5777 22.19 9.2706 22.8816 10.1 23.0467C10.4601 23.1182 10.828 23.1182 11.1881 23.0467C12.0175 22.8816 12.7091 22.1887 14.0936 20.8055L20.5 14.3991M12.7 6.2L21.8 15.3M8.8 22.6281L7.279 23.7136C6.668 24.1517 6.3625 24.3701 6.0258 24.3961C5.8958 24.4065 5.76667 24.3957 5.6384 24.3636C5.3121 24.283 5.0469 24.0165 4.5152 23.4861C3.9822 22.9531 3.717 22.6879 3.6364 22.3616C3.60621 22.2348 3.59525 22.1042 3.6039 21.9742C3.6299 21.6375 3.8483 21.332 4.2851 20.7197L5.3719 19.2M15.95 8.8L22.45 3.6M19.2 12.05L24.4 5.55M4.25 23.75L1 27" stroke="#636363" stroke-width="2" stroke-linecap="round" stroke-linejoin="round"/>
</svg>
