<svg width="18" height="18" viewBox="0 0 18 18" fill="none" xmlns="http://www.w3.org/2000/svg">
<path fill-rule="evenodd" clip-rule="evenodd" d="M9 1.63636C8.03299 1.63636 7.07546 1.82683 6.18206 2.19689C5.28866 2.56694 4.4769 3.10935 3.79312 3.79312C3.10935 4.4769 2.56694 5.28866 2.19689 6.18206C1.82683 7.07546 1.63636 8.03299 1.63636 9C1.63636 9.96701 1.82683 10.9245 2.19689 11.8179C2.56694 12.7113 3.10935 13.5231 3.79312 14.2069C4.4769 14.8907 5.28866 15.4331 6.18206 15.8031C7.07546 16.1732 8.03299 16.3636 9 16.3636C10.953 16.3636 12.8259 15.5878 14.2069 14.2069C15.5878 12.8259 16.3636 10.953 16.3636 9C16.3636 7.04704 15.5878 5.17407 14.2069 3.79312C12.8259 2.41217 10.953 1.63636 9 1.63636ZM0 9C0 4.02955 4.02955 0 9 0C13.9705 0 18 4.02955 18 9C18 13.9705 13.9705 18 9 18C4.02955 18 0 13.9705 0 9Z" fill="black"/>
<path fill-rule="evenodd" clip-rule="evenodd" d="M13.5873 6.54558L7.26603 12.8669L4.08984 9.07622L5.32612 8.0044L7.35193 10.4671L12.4304 5.38867L13.5873 6.54558Z" fill="black"/>
</svg>
